<svg width="1019" height="897" viewBox="0 0 1019 897" fill="none" xmlns="http://www.w3.org/2000/svg">
<path d="M872.391 707.5L731.766 366.875C729.168 360.585 724.763 355.207 719.106 351.422C713.45 347.638 706.798 345.618 699.992 345.618C693.187 345.618 686.534 347.638 680.878 351.422C675.222 355.207 670.816 360.585 668.219 366.875L527.594 707.5C525.845 711.677 524.939 716.159 524.928 720.687C524.916 725.216 525.8 729.702 527.527 733.888C529.255 738.074 531.792 741.877 534.994 745.079C538.196 748.281 541.999 750.82 546.185 752.548C550.371 754.276 554.857 755.16 559.385 755.149C563.914 755.138 568.395 754.232 572.573 752.484C576.75 750.736 580.541 748.179 583.727 744.962C586.914 741.744 589.433 737.929 591.141 733.734L619.781 664.375H780.203L808.844 733.734C811.44 740.028 815.846 745.408 821.504 749.194C827.162 752.98 833.817 755.001 840.625 755C846.274 754.997 851.834 753.601 856.815 750.938C861.796 748.274 866.044 744.424 869.183 739.728C872.322 735.031 874.255 729.634 874.812 724.013C875.369 718.392 874.532 712.721 872.375 707.5H872.391ZM648.172 595.625L700 470.078L751.828 595.625H648.172Z" fill="white"/>
<path d="M543.5 565.813C548.84 558.436 551.035 549.241 549.603 540.248C548.17 531.254 543.227 523.196 535.859 517.844C535.547 517.609 512.422 500.453 478.844 463.578C540.797 379.703 575.891 284.281 590.203 239.375H640.625C649.742 239.375 658.485 235.753 664.932 229.307C671.378 222.86 675 214.117 675 205C675 195.883 671.378 187.14 664.932 180.693C658.485 174.247 649.742 170.625 640.625 170.625H459.375V139.375C459.375 130.258 455.753 121.515 449.307 115.068C442.86 108.622 434.117 105 425 105C415.883 105 407.14 108.622 400.693 115.068C394.247 121.515 390.625 130.258 390.625 139.375V170.625H209.375C200.258 170.625 191.515 174.247 185.068 180.693C178.622 187.14 175 195.883 175 205C175 214.117 178.622 222.86 185.068 229.307C191.515 235.753 200.258 239.375 209.375 239.375H517.578C502.703 281.484 475.313 347.969 433.531 408.688C384.453 343.563 366.219 301.422 366.078 301.078C362.485 292.775 355.764 286.223 347.371 282.843C338.979 279.463 329.593 279.528 321.248 283.024C312.903 286.52 306.273 293.165 302.796 301.517C299.318 309.869 299.274 319.256 302.672 327.641C303.578 329.797 325.406 381.125 385.266 458.781C386.703 460.641 388.125 462.453 389.547 464.266C328.234 533.562 268.078 576.547 242.906 590.422C234.902 594.788 228.96 602.154 226.387 610.901C223.815 619.648 224.822 629.058 229.188 637.062C233.553 645.067 240.92 651.009 249.667 653.581C258.413 656.154 267.824 655.147 275.828 650.781C279.203 648.937 351.766 608.766 434.625 517.047C469.813 554.672 494 572.422 495.453 573.453C499.109 576.109 503.253 578.018 507.648 579.07C512.042 580.123 516.601 580.298 521.064 579.587C525.527 578.876 529.805 577.292 533.655 574.926C537.505 572.56 540.85 569.457 543.5 565.797V565.813Z" fill="white"/>
<rect x="30" y="30" width="959" height="837" stroke="white" stroke-width="60" stroke-linejoin="round"/>
</svg>
